:SAMPLES-PER-SECOND 30
:FULLY-SPECIFIED
:DEGREES
1092
root  56.1076 37.1782 0.631877 67.9469 83.6407 61.6011
RightUpLeg  -38.3064 -1.06001 -9.48071
RightLeg  43.9419 3.58617 3.3597
RightFoot  -3.73915 -0.755467 10.9098
RightToes  6.35927e-011 1.30204e-014 -6.03759e-014
Spine  12.4559 1.20313 -2.23291
Spine1  3.92906 2.31989 -3.5358
HEad  -30.3275 1.1459 -5.02733
LeftShoulder1  0.469617 2.03908 -25.7466
LeftArm  -6.4458 8.84069 -31.3894
LeftForeArm  58.5551 -78.7781 -74.1071
LeftHand  -0.125475 1.66574 3.70377
RightShoulder  -0.224825 -4.17094 26.1181
RightArm  -4.36325 -17.3499 32.7453
RightForeArm  84.9885 77.5684 114.19
RightHand  -0.448626 5.4738 -5.10763
LeftUpLeg  -32.941 9.31478 -9.01414
LeftLeg  35.2528 -3.17781 -2.04208
LeftFoot  -0.513973 -0.424969 4.57563
LeftToes  -7.16024e-010 4.79583e-011 -5.98286e-011
1093
root  56.5167 36.6404 0.829037 98.1318 83.386 90.3301
RightUpLeg  -41.0177 -1.86046 -11.189
RightLeg  36.8781 6.64162 5.12276
RightFoot  -2.8254 -0.901526 11.9038
RightToes  6.35927e-011 1.30204e-014 -6.03759e-014
Spine  17.6827 0.654036 -2.88023
Spine1  -0.792855 1.14751 -2.71988
HEad  -32.3305 -0.707092 -3.93331
LeftShoulder1  0.728485 1.05115 -23.4366
LeftArm  -7.30174 11.6094 -32.8153
LeftForeArm  66.3696 -79.1096 -81.1398
LeftHand  -0.119306 1.18316 3.17919
RightShoulder  -0.154929 -3.95751 25.985
RightArm  -5.08952 -21.9083 33.3923
RightForeArm  93.2774 76.7581 121.544
RightHand  -0.469179 6.64535 -4.85939
LeftUpLeg  -38.2593 6.62124 -9.50687
LeftLeg  42.1355 -3.51825 -2.99247
LeftFoot  0.512477 -0.0638785 0.518637
LeftToes  -7.16024e-010 4.79583e-011 -5.98286e-011
1094
root  56.9307 35.8079 0.970393 122.947 82.7714 113.595
RightUpLeg  -45.1248 -3.51752 -11.1658
RightLeg  38.0694 7.62274 6.1076
RightFoot  -1.93118 -0.643568 7.58168
RightToes  6.35927e-011 1.30204e-014 -6.03759e-014
Spine  21.6117 -0.00470531 -1.21825
Spine1  -3.67715 0.0768073 -2.90921
HEad  -34.5998 -2.47406 -2.66362
LeftShoulder1  0.928759 0.112946 -20.9429
LeftArm  -8.56065 13.882 -33.9984
LeftForeArm  73.7397 -79.2328 -88.5612
LeftHand  -0.0918088 0.547929 2.13224
RightShoulder  -0.0846625 -3.73987 26.0165
RightArm  -6.16972 -26.2993 34.2886
RightForeArm  101.545 75.4317 129.542
RightHand  -0.461241 6.81969 -4.72731
LeftUpLeg  -43.3133 4.07693 -8.87113
LeftLeg  46.3541 -3.22928 -3.19382
LeftFoot  -1.02966 0.0989003 -0.972758
LeftToes  -7.16024e-010 4.79583e-011 -5.98286e-011
1095
root  57.3649 34.8306 1.11663 133.783 81.9174 123.252
RightUpLeg  -49.8936 -4.77301 -10.7138
RightLeg  45.3671 6.25515 6.402
RightFoot  -3.30766 -0.167457 2.00032
RightToes  6.35927e-011 1.30204e-014 -6.03759e-014
Spine  23.9124 -0.514301 -0.0335093
Spine1  -3.91909 -0.33883 -3.98972
HEad  -37.6486 -3.68841 -1.6818
LeftShoulder1  1.04409 -0.530671 -19.3461
LeftArm  -10.3715 15.3366 -34.4985
LeftForeArm  82.2498 -79.1091 -97.7117
LeftHand  -0.0226465 0.618042 0.478095
RightShoulder  -0.144857 -3.9157 26.678
RightArm  -7.5597 -27.9644 34.8461
RightForeArm  106.71 74.0472 135.338
RightHand  -0.460311 6.0262 -5.00315
LeftUpLeg  -46.6703 3.00296 -8.75261
LeftLeg  48.0328 -2.39272 -2.41324
LeftFoot  -5.53636 -0.0402512 1.73626
LeftToes  -7.16024e-010 4.79583e-011 -5.98286e-011
1096
root  57.7893 34.071 1.35351 142.426 81.7419 134.617
RightUpLeg  -49.3522 -4.17023 -9.45878
RightLeg  51.7901 4.2233 5.38447
RightFoot  -6.3758 -0.0360378 -0.0242469
RightToes  6.35927e-011 1.30204e-014 -6.03759e-014
Spine  30.8203 -1.40681 1.57838
Spine1  -4.52957 -0.293255 -5.25633
HEad  -41.154 -4.38742 -1.02691
LeftShoulder1  1.15519 -1.07514 -18.6565
LeftArm  -11.9843 16.7106 -35.0034
LeftForeArm  93.1012 -78.6742 -108.199
LeftHand  -0.00715649 0.553614 0.0776608
RightShoulder  -0.366485 -4.53772 28.2672
RightArm  -9.25595 -27.0333 34.6572
RightForeArm  109.056 73.206 138.145
RightHand  -0.470058 5.81644 -5.18627
LeftUpLeg  -45.3343 3.82922 -7.50661
LeftLeg  50.576 -1.89953 -2.03391
LeftFoot  -10.5296 0.0190708 5.44673
LeftToes  -7.16024e-010 4.79583e-011 -5.98286e-011
1097
root  58.1508 33.5272 1.49485 173.9 81.7218 170.065
RightUpLeg  -46.0344 -4.30137 -5.09806
RightLeg  55.277 2.8492 4.00795
RightFoot  -8.99113 -0.0579062 -0.170895
RightToes  6.35927e-011 1.30204e-014 -6.03759e-014
Spine  39.2712 -3.95935 7.56763
Spine1  -5.91688 -0.739527 -6.40149
HEad  -44.7863 -4.99938 -0.811992
LeftShoulder1  1.27921 -1.57381 -18.6246
LeftArm  -12.3272 17.5479 -36.0671
LeftForeArm  100.69 -78.2633 -114.451
LeftHand  -0.0868827 -0.286687 1.79664
RightShoulder  -0.64927 -5.25804 30.2678
RightArm  -11.3194 -25.2996 34.2226
RightForeArm  110.167 73.0674 138.679
RightHand  -0.441524 6.79046 -4.55893
LeftUpLeg  -43.7177 3.5706 -2.77003
LeftLeg  56.084 -2.08623 -2.82295
LeftFoot  -13.7804 0.223514 6.85932
LeftToes  -7.16024e-010 4.79583e-011 -5.98286e-011
1098
root  58.4413 32.8652 1.62216 -179.191 81.1458 174.835
RightUpLeg  -50.3114 -4.08079 -4.07879
RightLeg  59.1816 2.03003 3.19871
RightFoot  -10.3197 -0.0594051 -1.19256
RightToes  6.35927e-011 1.30204e-014 -6.03759e-014
Spine  41.5114 -4.32365 9.17695
Spine1  -7.13105 -0.608794 -6.21991
HEad  -48.2382 -5.7802 -0.899405
LeftShoulder1  1.38839 -1.9825 -18.7566
LeftArm  -11.6324 17.2523 -37.4575
LeftForeArm  100.705 -78.311 -114.072
LeftHand  -0.173399 -0.552845 3.49871
RightShoulder  -0.869631 -5.75931 31.9291
RightArm  -13.4392 -23.7134 34.1521
RightForeArm  110.801 73.2119 138.393
RightHand  -0.37289 7.87413 -3.62115
LeftUpLeg  -48.2811 3.30533 -1.94018
LeftLeg  60.9749 -2.00662 -3.31757
LeftFoot  -14.966 0.292981 6.40708
LeftToes  -7.16024e-010 4.79583e-011 -5.98286e-011
1099
root  58.6875 32.5391 1.68668 -178.337 81.1153 173.616
RightUpLeg  -53.3086 -3.93399 -3.90123
RightLeg  61.2175 1.51141 2.46594
RightFoot  -11.045 -0.0678679 -2.3885
RightToes  6.35927e-011 1.30204e-014 -6.03759e-014
Spine  43.6687 -4.76283 10.0363
Spine1  -8.65219 -0.638499 -7.00575
HEad  -51.0093 -6.29889 -0.934134
LeftShoulder1  1.45705 -2.30572 -18.5118
LeftArm  -11.3043 16.6767 -38.825
LeftForeArm  97.7032 -78.4341 -112.059
LeftHand  -0.168225 0.280469 3.83352
RightShoulder  -0.959804 -5.93214 32.8991
RightArm  -15.1845 -21.7163 34.443
RightForeArm  110.993 73.2604 138.294
RightHand  -0.353247 7.93233 -3.44785
LeftUpLeg  -51.1863 2.85412 -1.89977
LeftLeg  62.6426 -1.77586 -3.10645
LeftFoot  -15.7135 0.328131 6.10755
LeftToes  -7.16024e-010 4.79583e-011 -5.98286e-011
1100
root  58.9061 32.5562 1.69192 -178.244 81.5382 171.961
RightUpLeg  -54.8057 -3.76126 -3.86821
RightLeg  61.1969 1.44661 2.32729
RightFoot  -11.3721 -0.0776643 -2.4508
RightToes  6.35927e-011 1.30204e-014 -6.03759e-014
Spine  45.214 -5.27885 10.5229
Spine1  -9.86312 -0.790829 -8.05787
HEad  -52.999 -6.23271 -1.03778
LeftShoulder1  1.48887 -2.50072 -18.2044
LeftArm  -11.8137 15.9379 -39.9815
LeftForeArm  96.9486 -78.3878 -112.141
LeftHand  -0.198241 0.411437 4.56338
RightShoulder  -0.934076 -5.85411 33.0865
RightArm  -16.7685 -18.5314 34.9114
RightForeArm  110.357 73.3864 137.849
RightHand  -0.354955 6.91473 -3.69007
LeftUpLeg  -52.4324 2.31295 -1.89243
LeftLeg  62.1503 -1.34314 -2.14814
LeftFoot  -16.2659 0.35554 5.99045
LeftToes  -7.16024e-010 4.79583e-011 -5.98286e-011
1101
root  59.1266 32.877 1.65145 -176.566 82.3236 172.334
RightUpLeg  -54.9782 -3.41036 -3.57173
RightLeg  59.3553 1.71333 2.63478
RightFoot  -10.8312 -0.0633005 -2.18061
RightToes  6.35927e-011 1.30204e-014 -6.03759e-014
Spine  45.9936 -5.62216 11.2893
Spine1  -10.8873 -0.842114 -9.02119
HEad  -54.0152 -5.98658 -1.2925
LeftShoulder1  1.53028 -2.82709 -17.5347
LeftArm  -12.3004 14.363 -41.1541
LeftForeArm  95.9182 -78.4147 -111.535
LeftHand  -0.294126 -0.459647 5.95725
RightShoulder  -0.858217 -5.67978 32.7572
RightArm  -18.3127 -14.8177 35.4585
RightForeArm  107.971 73.9434 135.844
RightHand  -0.277388 6.08786 -3.13778
LeftUpLeg  -52.4455 2.04318 -1.56661
LeftLeg  60.682 -0.929781 -1.2065
LeftFoot  -16.0308 0.318114 5.39552
LeftToes  -7.16024e-010 4.79583e-011 -5.98286e-011
1102
root  59.3964 33.4569 1.6229 -178.046 82.9742 170.033
RightUpLeg  -53.7813 -3.17127 -3.61152
RightLeg  56.3188 2.00303 2.80426
RightFoot  -9.70367 -0.0288701 -2.54592
RightToes  6.35927e-011 1.30204e-014 -6.03759e-014
Spine  46.4513 -5.91052 11.9141
Spine1  -12.2204 -0.839789 -10.5088
HEad  -53.8076 -6.02277 -1.50612
LeftShoulder1  1.60514 -3.54266 -16.0329
LeftArm  -12.1795 11.3887 -42.2312
LeftForeArm  90.3209 -78.6172 -107.543
LeftHand  -0.266066 0.00565989 5.72654
RightShoulder  -0.776916 -5.49873 32.2334
RightArm  -19.5728 -11.2277 35.7137
RightForeArm  103.857 74.7327 132.584
RightHand  -0.230481 6.3308 -2.57571
LeftUpLeg  -51.0698 2.01019 -1.64262
LeftLeg  57.7596 -0.728068 -0.704714
LeftFoot  -14.951 0.242202 4.84141
LeftToes  -7.16024e-010 4.79583e-011 -5.98286e-011
1103
root  59.7133 34.2776 1.62411 176.387 83.2543 163.992
RightUpLeg  -51.2038 -3.19382 -4.10284
RightLeg  51.9932 2.3278 2.8118
RightFoot  -8.37387 0.0208886 -2.98687
RightToes  6.35927e-011 1.30204e-014 -6.03759e-014
Spine  46.7545 -6.47337 12.3298
Spine1  -14.1126 -1.01686 -12.9678
HEad  -52.3619 -6.18531 -1.32771
LeftShoulder1  1.677 -4.65621 -13.5979
LeftArm  -11.959 7.5564 -42.9468
LeftForeArm  83.4353 -78.7211 -103.39
LeftHand  -0.172967 1.24098 4.77046
RightShoulder  -0.706455 -5.33774 31.7784
RightArm  -20.8174 -6.97982 35.0769
RightForeArm  102.257 74.9882 131.406
RightHand  -0.185573 2.84988 -3.29203
LeftUpLeg  -48.2445 2.00635 -2.2072
LeftLeg  52.8194 -0.684914 -0.491552
LeftFoot  -13.1679 0.156431 4.91916
LeftToes  -7.16024e-010 4.79583e-011 -5.98286e-011
